<?xml version="1.0" standalone="no"?><!DOCTYPE svg PUBLIC "-//W3C//DTD SVG 1.1//EN" "http://www.w3.org/Graphics/SVG/1.1/DTD/svg11.dtd"><svg t="1684332620518" class="icon" viewBox="0 0 1024 1024" version="1.1" xmlns="http://www.w3.org/2000/svg" p-id="2477" xmlns:xlink="http://www.w3.org/1999/xlink" width="200" height="200"><path d="M524.3904 422.3488c-15.0016-1.1264-29.7472 0.6656-43.8784 5.376-11.264 3.7376-23.2448 2.9184-33.7408-2.304L361.472 382.72l44.0832 89.088c4.8128 9.728 5.8368 20.9408 2.8672 31.5392-3.3792 12.1344-4.7104 24.7296-3.8912 37.4784 3.6352 55.9616 48.5888 100.608 104.4992 103.7824 31.8464 1.8432 63.0272-10.0352 85.504-32.512 22.4768-22.528 34.2528-53.7088 32.3072-85.5552-3.2768-55.2448-47.3088-99.9936-102.4512-104.192z" fill="#B2BBF9" p-id="2478"></path><path d="M510.6688 135.2704C288 135.2704 107.52 315.8016 107.52 538.4192s180.48 403.1488 403.1488 403.1488c222.6688 0 403.1488-180.48 403.1488-403.1488s-180.5312-403.1488-403.1488-403.1488z m126.6176 519.424a172.22144 172.22144 0 0 1-121.8048 50.432c-3.2768 0-6.6048-0.1024-9.9328-0.3072-86.3744-4.9664-155.6992-73.8304-161.3312-160.2048-1.1264-17.4592 0.3584-34.816 4.4032-51.6608L285.4912 365.3632a43.78624 43.78624 0 0 1 8.3456-50.5344 43.8272 43.8272 0 0 1 50.5856-8.1408l123.4432 61.696c19.8144-5.7344 40.3456-7.8848 61.1328-6.2464 85.0432 6.5024 153.0368 75.5712 158.1568 160.768 2.9184 49.0496-15.2064 97.1264-49.8688 131.7888z" fill="#B2BBF9" p-id="2479"></path><path d="M524.3904 376.9856c-15.0016-1.1264-29.7472 0.6656-43.8784 5.376-11.264 3.7376-23.2448 2.9184-33.7408-2.304L361.472 337.3568l44.0832 89.088c4.8128 9.728 5.8368 20.9408 2.8672 31.5392-3.3792 12.1344-4.7104 24.7296-3.8912 37.4784 3.6352 55.9616 48.5888 100.608 104.4992 103.7824 31.8464 1.8432 63.0272-10.0352 85.504-32.512 22.4768-22.528 34.2528-53.7088 32.3072-85.5552-3.2768-55.2448-47.3088-99.9936-102.4512-104.192z" fill="#7A7DFF" p-id="2480"></path><path d="M510.6688 89.9072C288 89.9072 107.52 270.3872 107.52 493.056s180.48 403.1488 403.1488 403.1488c222.6688 0 403.1488-180.48 403.1488-403.1488s-180.5312-403.1488-403.1488-403.1488z m126.6176 519.424a172.22144 172.22144 0 0 1-121.8048 50.432c-3.2768 0-6.6048-0.1024-9.9328-0.3072-86.3744-4.9664-155.6992-73.8304-161.3312-160.2048-1.1264-17.4592 0.3584-34.816 4.4032-51.6608L285.4912 320a43.78624 43.78624 0 0 1 8.3456-50.5344 43.8272 43.8272 0 0 1 50.5856-8.1408l123.4432 61.696c19.8144-5.7344 40.3456-7.8848 61.1328-6.2464 85.0432 6.5024 153.0368 75.5712 158.1568 160.768 2.9184 49.0496-15.2064 97.0752-49.8688 131.7888z" fill="#7A7DFF" p-id="2481"></path></svg>