<?xml version="1.0" standalone="no"?><!DOCTYPE svg PUBLIC "-//W3C//DTD SVG 1.1//EN" "http://www.w3.org/Graphics/SVG/1.1/DTD/svg11.dtd"><svg t="1684368437857" class="icon" viewBox="0 0 1024 1024" version="1.1" xmlns="http://www.w3.org/2000/svg" p-id="1748" xmlns:xlink="http://www.w3.org/1999/xlink" width="200" height="200"><path d="M702.976 427.5712a83.7632 83.7632 0 0 1-59.8016 24.9856c-21.3504 0-42.7008-8.0896-59.0848-24.2688-33.024-32.6144-33.3312-85.8112-0.7168-118.8352l136.0384-137.6768a21.82656 21.82656 0 0 0 3.84-25.4976l-3.1232-5.9392-457.8816 30.72c-37.12 0-67.2256 30.1056-67.2256 67.2256v604.1088c0 37.12 30.1056 67.2256 67.2256 67.2256H781.824c37.12 0 67.2256-30.1056 67.2256-67.2256V279.7568L702.976 427.5712z m-409.344-39.8336h197.0688c17.3056 0 31.3344 15.0528 31.3344 33.6384 0 18.5856-14.0288 33.6384-31.3344 33.6384H293.632c-17.3056 0-31.3344-15.0528-31.3344-33.6384 0.0512-18.5856 14.0288-33.6384 31.3344-33.6384z m378.112 311.9616H295.936c-18.5856 0-33.6384-15.0528-33.6384-33.6384s15.0528-33.6384 33.6384-33.6384h375.808c18.5856 0 33.6384 15.0528 33.6384 33.6384s-15.104 33.6384-33.6384 33.6384z" fill="#E0C8FC" p-id="1749"></path><path d="M643.1744 402.1248c-8.5504 0-17.1008-3.2256-23.6544-9.728a33.57696 33.57696 0 0 1-0.256-47.5136l205.4144-207.3088c13.056-13.2096 34.3552-13.312 47.5136-0.3072 13.2096 13.056 13.312 34.3552 0.256 47.5136l-205.4144 207.3088a33.13664 33.13664 0 0 1-23.8592 10.0352z" fill="#E0C8FC" p-id="1750"></path><path d="M702.976 386.6112a83.7632 83.7632 0 0 1-59.8016 24.9856c-21.3504 0-42.7008-8.0896-59.0848-24.2688-33.024-32.6144-33.3312-85.8112-0.7168-118.8352l136.8064-138.3936H262.2976c-37.12 0-67.2256 30.1056-67.2256 67.2256v604.1088c0 37.12 30.1056 67.2256 67.2256 67.2256H781.824c37.12 0 67.2256-30.1056 67.2256-67.2256V238.7968L702.976 386.6112z m-409.344-39.8336h197.0688c17.3056 0 31.3344 15.0528 31.3344 33.6384 0 18.5856-14.0288 33.6384-31.3344 33.6384H293.632c-17.3056 0-31.3344-15.0528-31.3344-33.6384 0.0512-18.5856 14.0288-33.6384 31.3344-33.6384z m378.112 311.9616H295.936c-18.5856 0-33.6384-15.0528-33.6384-33.6384s15.0528-33.6384 33.6384-33.6384h375.808c18.5856 0 33.6384 15.0528 33.6384 33.6384s-15.104 33.6384-33.6384 33.6384z" fill="#7A7DFF" p-id="1751" data-spm-anchor-id="a313x.7781069.0.i0" class="selected"></path><path d="M643.1744 361.1648c-8.5504 0-17.1008-3.2256-23.6544-9.728a33.57696 33.57696 0 0 1-0.256-47.5136l205.4144-207.3088c13.056-13.2096 34.3552-13.312 47.5136-0.3072 13.2096 13.056 13.312 34.3552 0.256 47.5136l-205.4144 207.3088a33.13664 33.13664 0 0 1-23.8592 10.0352z" fill="#7A7DFF" p-id="1752" data-spm-anchor-id="a313x.7781069.0.i1" class="selected"></path></svg>