<?xml version="1.0" standalone="no"?><!DOCTYPE svg PUBLIC "-//W3C//DTD SVG 1.1//EN" "http://www.w3.org/Graphics/SVG/1.1/DTD/svg11.dtd"><svg t="1684337334276" class="icon" viewBox="0 0 1024 1024" version="1.1" xmlns="http://www.w3.org/2000/svg" p-id="5456" xmlns:xlink="http://www.w3.org/1999/xlink" width="200" height="200"><path d="M899.1232 417.1264l-373.504-274.432a23.6544 23.6544 0 0 0-28.0576 0l-373.504 274.432c-18.432 13.568-8.8576 42.8032 14.0288 42.8032H179.2v378.5728c0 45.2608 36.6592 81.92 81.92 81.92h500.992c45.2608 0 81.92-36.6592 81.92-81.92V459.9296h41.1136c22.8864 0 32.4608-29.2864 13.9776-42.8032z m-225.7408 302.9504c-59.8016 65.4336-119.7056 82.3296-165.4784 82.3296-8.96 0-17.408-0.6656-25.1904-1.6896-71.2704-9.6256-126.72-57.856-141.7216-87.3984-7.68-15.104-1.6896-33.6384 13.4144-41.3184 15.1552-7.68 33.6384-1.6896 41.3184 13.4144 4.608 9.0624 41.6256 47.104 95.232 54.3744 47.9232 6.5024 94.0544-14.08 137.0624-61.184 11.4176-12.544 30.8736-13.4144 43.4176-1.9456a30.79168 30.79168 0 0 1 1.9456 43.4176z" fill="#C0E9FF" p-id="5457"></path><path d="M899.1232 376.1664l-373.504-274.432a23.6544 23.6544 0 0 0-28.0576 0l-373.504 274.432c-18.432 13.568-8.8576 42.8032 14.0288 42.8032H179.2v378.5728c0 45.2608 36.6592 81.92 81.92 81.92h500.992c45.2608 0 81.92-36.6592 81.92-81.92V418.9696h41.1136c22.8864 0 32.4608-29.2864 13.9776-42.8032z m-225.7408 302.9504c-59.8016 65.4336-119.7056 82.3296-165.4784 82.3296-8.96 0-17.408-0.6656-25.1904-1.6896-71.2704-9.6256-126.72-57.856-141.7216-87.3984-7.68-15.104-1.6896-33.6384 13.4144-41.3184 15.1552-7.68 33.6384-1.6896 41.3184 13.4144 4.608 9.0624 41.6256 47.104 95.232 54.3744 47.9232 6.5024 94.0544-14.08 137.0624-61.184 11.4176-12.544 30.8736-13.4144 43.4176-1.9456a30.79168 30.79168 0 0 1 1.9456 43.4176z" fill="#7A7DFF" p-id="5458" data-spm-anchor-id="a313x.7781069.0.i38" class="selected"></path></svg>