<?xml version="1.0" standalone="no"?><!DOCTYPE svg PUBLIC "-//W3C//DTD SVG 1.1//EN" "http://www.w3.org/Graphics/SVG/1.1/DTD/svg11.dtd"><svg t="1684332629959" class="icon" viewBox="0 0 1024 1024" version="1.1" xmlns="http://www.w3.org/2000/svg" p-id="3059" xmlns:xlink="http://www.w3.org/1999/xlink" width="200" height="200"><path d="M831.2832 176.2304H202.9568c-45.2608 0-81.92 36.6592-81.92 81.92v445.3376c0 45.2608 36.6592 81.92 81.92 81.92h90.5728c10.1376 0 18.3296 8.2432 18.2784 18.3296l-0.3584 89.7024c-0.1024 20.0704 23.5008 30.8736 38.6048 17.7152l139.6736-121.2928c3.328-2.8672 7.5776-4.4544 11.9808-4.4544h329.5744c45.2608 0 81.92-36.6592 81.92-81.92V258.1504c0-45.2608-36.6592-81.92-81.92-81.92z m-123.3408 335.8208c-3.6352 3.7888-89.856 92.7232-191.1296 92.7232-100.5056 0-193.536-88.064-197.4272-91.8016a30.72 30.72 0 0 1-0.9216-43.4176c11.7248-12.2368 31.1296-12.6464 43.4176-0.9728 1.024 0.9728 79.4624 74.752 154.9312 74.752 62.464 0 127.1296-53.248 146.7392-73.7792a30.67904 30.67904 0 0 1 43.4176-0.9728c12.288 11.776 12.6976 31.232 0.9728 43.4688z" fill="#95F9F4" p-id="3060"></path><path d="M831.2832 131.9936H202.9568c-45.2608 0-81.92 36.6592-81.92 81.92v445.3376c0 45.2608 36.6592 81.92 81.92 81.92h90.5728c10.1376 0 18.3296 8.2432 18.2784 18.3296l-0.3584 89.7024c-0.1024 20.0704 23.5008 30.8736 38.6048 17.7152l139.6736-121.2928c3.328-2.8672 7.5776-4.4544 11.9808-4.4544h329.5744c45.2608 0 81.92-36.6592 81.92-81.92V213.9136c0-45.2608-36.6592-81.92-81.92-81.92z m-123.3408 335.8208c-3.6352 3.7888-89.856 92.7232-191.1296 92.7232-100.5056 0-193.536-88.064-197.4272-91.8016a30.72 30.72 0 0 1-0.9216-43.4176c11.7248-12.2368 31.1296-12.6464 43.4176-0.9728 1.024 0.9728 79.4624 74.752 154.9312 74.752 62.464 0 127.1296-53.248 146.7392-73.7792a30.67904 30.67904 0 0 1 43.4176-0.9728c12.288 11.776 12.6976 31.232 0.9728 43.4688z" fill="#3DC3C6" p-id="3061"></path></svg>