<?xml version="1.0" standalone="no"?><!DOCTYPE svg PUBLIC "-//W3C//DTD SVG 1.1//EN" "http://www.w3.org/Graphics/SVG/1.1/DTD/svg11.dtd"><svg t="1684332603460" class="icon" viewBox="0 0 1024 1024" version="1.1" xmlns="http://www.w3.org/2000/svg" p-id="1745" xmlns:xlink="http://www.w3.org/1999/xlink" width="200" height="200"><path d="M645.3248 883.968H420.7104c-17.8176 0-32.256 14.4384-32.256 32.256s14.4384 32.256 32.256 32.256h224.6144c17.8176 0 32.256-14.4384 32.256-32.256s-14.4384-32.256-32.256-32.256zM519.4752 107.6224c-174.6432 6.8096-316.928 148.736-324.1984 323.3792-5.8368 140.0832 73.6256 262.2976 190.72 318.9248 9.4208 4.5568 15.4112 14.0288 15.4112 24.4736v31.2832c0 15.0528 12.1856 27.2384 27.2384 27.2384h208.6912c15.0528 0 27.2384-12.1856 27.2384-27.2384v-31.2832c0-10.3936 5.9392-19.9168 15.3088-24.4224 113.152-54.6816 191.1808-170.496 191.1808-304.5888 0-191.1808-158.72-345.2928-351.5904-337.7664z m92.8256 431.104h-47.0016v126.2592a32.256 32.256 0 0 1-32.256 32.256 32.256 32.256 0 0 1-32.256-32.256v-126.2592h-47.0016a32.256 32.256 0 0 1-32.256-32.256 32.256 32.256 0 0 1 32.256-32.256h158.5152a32.256 32.256 0 0 1 32.256 32.256c-0.0512 17.8176-14.4896 32.256-32.256 32.256z" fill="#FFD0C0" p-id="1746"></path><path d="M645.3248 846.848H420.7104a32.256 32.256 0 0 0-32.256 32.256 32.256 32.256 0 0 0 32.256 32.256h224.6144a32.256 32.256 0 0 0 32.256-32.256 32.256 32.256 0 0 0-32.256-32.256zM519.4752 70.5024c-174.6432 6.8096-316.928 148.736-324.1984 323.3792-5.8368 140.0832 73.6256 262.2976 190.72 318.9248 9.4208 4.5568 15.4112 14.0288 15.4112 24.4736v31.2832c0 15.0528 12.1856 27.2384 27.2384 27.2384h208.6912c15.0528 0 27.2384-12.1856 27.2384-27.2384V737.28c0-10.3936 5.9392-19.9168 15.3088-24.4224 113.152-54.6816 191.1808-170.496 191.1808-304.5888 0-191.1808-158.72-345.2928-351.5904-337.7664z m92.8256 431.104h-47.0016v126.2592a32.256 32.256 0 0 1-32.256 32.256 32.256 32.256 0 0 1-32.256-32.256V501.6064h-47.0016c-17.8176 0-32.256-14.4384-32.256-32.256s14.4384-32.256 32.256-32.256h158.5152a32.256 32.256 0 1 1 0 64.512z" fill="#FD9163" p-id="1747"></path></svg>