<?xml version="1.0" standalone="no"?><!DOCTYPE svg PUBLIC "-//W3C//DTD SVG 1.1//EN" "http://www.w3.org/Graphics/SVG/1.1/DTD/svg11.dtd"><svg t="1684332614522" class="icon" viewBox="0 0 1024 1024" version="1.1" xmlns="http://www.w3.org/2000/svg" p-id="2183" xmlns:xlink="http://www.w3.org/1999/xlink" width="200" height="200"><path d="M842.5472 214.016h-108.7488v72.448c0 41.0112-33.2288 74.24-74.24 74.24s-74.24-33.2288-74.24-74.24V214.016H446.4128v72.448c0 41.0112-33.2288 74.24-74.24 74.24s-74.24-33.2288-74.24-74.24V214.016H183.6032c-43.7248 0-79.1552 35.4304-79.1552 79.1552V835.584c0 43.7248 35.4304 79.1552 79.1552 79.1552h658.944c43.7248 0 79.1552-35.4304 79.1552-79.1552V293.1712c0-43.6736-35.4304-79.1552-79.1552-79.1552zM372.224 757.8624H309.0432c-16.384 0-29.696-13.312-29.696-29.696 0-16.384 13.312-29.696 29.696-29.696H372.224c16.384 0 29.696 13.312 29.696 29.696-0.0512 16.384-13.312 29.696-29.696 29.696z m0-115.3536H309.0432c-16.384 0-29.696-13.312-29.696-29.696s13.312-29.696 29.696-29.696H372.224c16.384 0 29.696 13.312 29.696 29.696s-13.312 29.696-29.696 29.696z m172.3904 115.3536H481.4848c-16.384 0-29.696-13.312-29.696-29.696 0-16.384 13.312-29.696 29.696-29.696h63.1808c16.384 0 29.696 13.312 29.696 29.696-0.0512 16.384-13.312 29.696-29.7472 29.696z m0-115.3536H481.4848c-16.384 0-29.696-13.312-29.696-29.696s13.312-29.696 29.696-29.696h63.1808c16.384 0 29.696 13.312 29.696 29.696s-13.312 29.696-29.7472 29.696z m178.1248 115.3536h-63.1808c-16.384 0-29.696-13.312-29.696-29.696 0-16.384 13.312-29.696 29.696-29.696h63.1808c16.384 0 29.696 13.312 29.696 29.696 0 16.384-13.312 29.696-29.696 29.696z m0-115.3536h-63.1808c-16.384 0-29.696-13.312-29.696-29.696s13.312-29.696 29.696-29.696h63.1808c16.384 0 29.696 13.312 29.696 29.696s-13.312 29.696-29.696 29.696z m105.472-178.8416H197.888c-16.384 0-29.696-13.312-29.696-29.696s13.312-29.696 29.696-29.696h630.3744c16.384 0 29.696 13.312 29.696 29.696s-13.312 29.696-29.7472 29.696z" fill="#EECAFC" p-id="2184"></path><path d="M372.224 316.16c-16.384 0-29.696-13.312-29.696-29.696V187.4432c0-16.384 13.312-29.696 29.696-29.696s29.696 13.312 29.696 29.696v99.072c-0.0512 16.384-13.312 29.6448-29.696 29.6448zM659.6096 316.16c-16.384 0-29.696-13.312-29.696-29.696V187.4432c0-16.384 13.312-29.696 29.696-29.696 16.384 0 29.696 13.312 29.696 29.696v99.072c-0.0512 16.384-13.312 29.6448-29.696 29.6448z" fill="#EECAFC" p-id="2185"></path><path d="M842.5472 167.936h-108.7488v72.448c0 41.0112-33.2288 74.24-74.24 74.24s-74.24-33.2288-74.24-74.24V167.936H446.4128v72.448c0 41.0112-33.2288 74.24-74.24 74.24s-74.24-33.2288-74.24-74.24V167.936H183.6032c-43.7248 0-79.1552 35.4304-79.1552 79.1552V789.504c0 43.7248 35.4304 79.1552 79.1552 79.1552h658.944c43.7248 0 79.1552-35.4304 79.1552-79.1552V247.0912c0-43.6736-35.4304-79.1552-79.1552-79.1552zM372.224 711.7824H309.0432c-16.384 0-29.696-13.312-29.696-29.696 0-16.384 13.312-29.696 29.696-29.696H372.224c16.384 0 29.696 13.312 29.696 29.696-0.0512 16.384-13.312 29.696-29.696 29.696z m0-115.3536H309.0432c-16.384 0-29.696-13.312-29.696-29.696s13.312-29.696 29.696-29.696H372.224c16.384 0 29.696 13.312 29.696 29.696s-13.312 29.696-29.696 29.696z m172.3904 115.3536H481.4848c-16.384 0-29.696-13.312-29.696-29.696 0-16.384 13.312-29.696 29.696-29.696h63.1808c16.384 0 29.696 13.312 29.696 29.696-0.0512 16.384-13.312 29.696-29.7472 29.696z m0-115.3536H481.4848c-16.384 0-29.696-13.312-29.696-29.696s13.312-29.696 29.696-29.696h63.1808c16.384 0 29.696 13.312 29.696 29.696s-13.312 29.696-29.7472 29.696z m178.1248 115.3536h-63.1808c-16.384 0-29.696-13.312-29.696-29.696 0-16.384 13.312-29.696 29.696-29.696h63.1808c16.384 0 29.696 13.312 29.696 29.696 0 16.384-13.312 29.696-29.696 29.696z m0-115.3536h-63.1808c-16.384 0-29.696-13.312-29.696-29.696s13.312-29.696 29.696-29.696h63.1808c16.384 0 29.696 13.312 29.696 29.696s-13.312 29.696-29.696 29.696z m105.472-178.8416H197.888c-16.384 0-29.696-13.312-29.696-29.696s13.312-29.696 29.696-29.696h630.3744c16.384 0 29.696 13.312 29.696 29.696s-13.312 29.696-29.7472 29.696z" fill="#D57AF1" p-id="2186"></path><path d="M372.224 270.08c-16.384 0-29.696-13.312-29.696-29.696V141.3632c0-16.384 13.312-29.696 29.696-29.696s29.696 13.312 29.696 29.696v99.072c-0.0512 16.384-13.312 29.6448-29.696 29.6448zM659.6096 270.08c-16.384 0-29.696-13.312-29.696-29.696V141.3632c0-16.384 13.312-29.696 29.696-29.696 16.384 0 29.696 13.312 29.696 29.696v99.072c-0.0512 16.384-13.312 29.6448-29.696 29.6448z" fill="#D57AF1" p-id="2187"></path></svg>