<?xml version="1.0" standalone="no"?><!DOCTYPE svg PUBLIC "-//W3C//DTD SVG 1.1//EN" "http://www.w3.org/Graphics/SVG/1.1/DTD/svg11.dtd"><svg height="800" node-id="1" sillyvg="true" template-height="800" template-width="800" version="1.1" viewBox="0 0 800 800" width="800" xmlns="http://www.w3.org/2000/svg" xmlns:xlink="http://www.w3.org/1999/xlink"><defs node-id="42"><linearGradient gradientUnits="userSpaceOnUse" id="SVGID_1_" node-id="18" spreadMethod="pad" x1="388.1234" x2="388.1234" y1="85.8337" y2="704.8252"><stop offset="0.0000001918004" stop-color="#f6f8ff"></stop><stop offset="1" stop-color="#d9e3ff"></stop></linearGradient><linearGradient gradientUnits="userSpaceOnUse" id="SVGID_2_" node-id="26" spreadMethod="pad" x1="211.1727" x2="583.9757" y1="233.4294" y2="233.4294"><stop offset="0.0000004795011" stop-color="#a9bfff"></stop><stop offset="1" stop-color="#7798ff"></stop></linearGradient><linearGradient gradientUnits="userSpaceOnUse" id="SVGID_3_" node-id="30" spreadMethod="pad" x1="280.3085" x2="519.2939" y1="219.0352" y2="632.9702"><stop offset="0" stop-color="#d4e1ff"></stop><stop offset="1" stop-color="#7798ff"></stop></linearGradient></defs><g node-id="107"><g node-id="108"><path d="M 685.95 165.81 C 685.95 176.73 677.09 185.59 666.17 185.59 C 655.25 185.59 646.39 176.73 646.39 165.81 C 646.39 154.89 655.25 146.03 666.17 146.03 C 677.09 146.03 685.95 154.89 685.95 165.81 Z" fill="#f3f6ff" fill-rule="nonzero" group-id="1,2" node-id="68" stroke="none" target-height="39.559998" target-width="39.559998" target-x="646.39" target-y="146.03"></path><path d="M 117.83 617.60 C 117.83 628.52 108.97 637.38 98.05 637.38 C 87.13 637.38 78.27 628.52 78.27 617.60 C 78.27 606.68 87.13 597.82 98.05 597.82 C 108.97 597.82 117.83 606.68 117.83 617.60 Z" fill="#dfe7ff" fill-rule="nonzero" group-id="1,2" node-id="70" stroke="none" target-height="39.559998" target-width="39.560005" target-x="78.27" target-y="597.82"></path><path d="M 219.18 679.61 C 211.80 679.61 205.80 673.61 205.80 666.23 C 205.80 658.85 211.80 652.85 219.18 652.85 C 226.56 652.85 232.56 658.85 232.56 666.23 C 232.56 673.60 226.56 679.61 219.18 679.61 Z M 219.18 659.27 C 215.35 659.27 212.23 662.39 212.23 666.22 C 212.23 670.05 215.35 673.17 219.18 673.17 C 223.01 673.17 226.13 670.05 226.13 666.22 C 226.13 662.39 223.01 659.27 219.18 659.27 Z" fill="#dfe7ff" fill-rule="nonzero" group-id="1,2" node-id="72" stroke="none" target-height="26.76001" target-width="26.759995" target-x="205.8" target-y="652.85"></path><path d="M 597.61 106.46 L 577.63 106.46 L 577.63 86.49 C 577.63 82.83 574.67 79.87 571.01 79.87 C 567.35 79.87 564.39 82.83 564.39 86.49 L 564.39 106.47 L 544.41 106.47 C 540.75 106.47 537.79 109.43 537.79 113.09 C 537.79 116.75 540.75 119.71 544.41 119.71 L 564.39 119.71 L 564.39 139.69 C 564.39 143.35 567.35 146.31 571.01 146.31 C 574.67 146.31 577.63 143.35 577.63 139.69 L 577.63 119.70 L 597.61 119.70 C 601.27 119.70 604.23 116.74 604.23 113.08 C 604.23 109.42 601.26 106.46 597.61 106.46 Z" fill="#f3f6ff" fill-rule="nonzero" group-id="1,2" node-id="74" stroke="none" target-height="66.439995" target-width="66.44" target-x="537.79" target-y="79.87"></path><path d="M 655.19 683.50 L 640.35 683.50 L 640.35 668.66 C 640.35 665.62 637.88 663.15 634.84 663.15 C 631.80 663.15 629.33 665.62 629.33 668.66 L 629.33 683.50 L 614.50 683.50 C 611.46 683.50 608.99 685.97 608.99 689.01 C 608.99 692.05 611.46 694.52 614.50 694.52 L 629.34 694.52 L 629.34 709.36 C 629.34 712.40 631.81 714.87 634.85 714.87 C 637.89 714.87 640.36 712.40 640.36 709.36 L 640.36 694.52 L 655.20 694.52 C 658.24 694.52 660.71 692.05 660.71 689.01 C 660.71 685.97 658.23 683.50 655.19 683.50 Z" fill="#dfe7ff" fill-rule="nonzero" group-id="1,2" node-id="76" stroke="none" target-height="51.71997" target-width="51.72003" target-x="608.99" target-y="663.15"></path><path d="M 120.12 121.91 C 128.82 130.61 142.94 130.61 151.64 121.91 L 151.64 121.91 C 160.34 113.21 160.34 99.09 151.64 90.39 L 144.98 83.73 C 136.28 75.03 122.16 75.03 113.46 83.73 L 113.46 83.73 C 104.76 92.43 104.76 106.55 113.46 115.25 L 120.12 121.91 Z" fill="#f3f6ff" fill-rule="nonzero" group-id="1,2" node-id="78" stroke="none" target-height="51.229996" target-width="51.229996" target-x="106.935" target-y="77.205"></path><path d="M 234.84 113.85 C 238.81 117.82 245.25 117.82 249.22 113.85 C 253.19 109.88 253.19 103.44 249.22 99.47 L 239.21 89.46 C 235.24 85.49 228.80 85.49 224.83 89.46 C 220.86 93.43 220.86 99.87 224.83 103.84 L 234.84 113.85 Z" fill="#f3f6ff" fill-rule="nonzero" group-id="1,2" node-id="80" stroke="none" target-height="30.272163" target-width="30.272202" target-x="221.8889" target-y="86.518906"></path><path d="M 83.77 314.57 C 87.74 318.54 94.18 318.54 98.15 314.57 L 98.15 314.57 C 102.12 310.60 102.12 304.16 98.15 300.19 L 88.14 290.18 C 84.17 286.21 77.73 286.21 73.76 290.18 C 69.79 294.15 69.79 300.59 73.76 304.56 L 83.77 314.57 Z" fill="#f3f6ff" fill-rule="nonzero" group-id="1,2" node-id="82" stroke="none" target-height="30.272217" target-width="30.272171" target-x="70.81891" target-y="287.2389"></path><path d="M 611.73 622.04 C 607.76 618.07 601.32 618.07 597.35 622.04 C 593.38 626.01 593.38 632.45 597.35 636.42 L 607.36 646.43 C 611.33 650.40 617.77 650.40 621.74 646.43 C 625.71 642.46 625.71 636.02 621.74 632.05 L 611.73 622.04 Z" fill="#dfe7ff" fill-rule="nonzero" group-id="1,2" node-id="84" stroke="none" target-height="30.272217" target-width="30.272217" target-x="594.40894" target-y="619.0989"></path><path d="M 732.12 630.53 C 732.12 648.63 717.45 663.30 699.35 663.30 C 681.25 663.30 666.58 648.63 666.58 630.53 C 666.58 612.43 681.25 597.76 699.35 597.76 C 717.45 597.76 732.12 612.43 732.12 630.53 Z" fill="#dfe7ff" fill-rule="nonzero" group-id="1,2" node-id="86" stroke="none" target-height="65.53998" target-width="65.53998" target-x="666.58" target-y="597.76"></path><path d="M 700.00 478.57 L 668.49 447.06 L 648.52 425.79 C 643.35 420.36 643.28 411.85 648.36 406.33 L 648.36 406.33 C 653.91 400.30 663.40 400.19 669.08 406.10 L 673.12 410.51 L 682.44 419.83 C 687.85 425.24 696.73 425.65 702.24 420.34 C 707.85 414.93 707.92 405.99 702.43 400.50 L 683.80 381.87 C 676.92 374.99 672.44 366.05 671.14 356.41 C 652.92 221.02 536.94 116.62 396.56 116.62 C 391.77 116.62 387.01 116.75 382.28 116.99 C 377.17 117.25 372.18 115.38 368.57 111.76 L 349.43 92.62 C 340.88 84.07 326.96 83.44 318.11 91.68 C 308.82 100.33 308.63 114.87 317.52 123.77 L 320.86 127.11 L 331.27 138.05 C 337.81 144.97 336.84 156.05 329.19 161.73 C 322.68 166.56 314.51 164.99 309.00 159.04 L 288.31 138.58 L 270.27 120.54 C 266.44 116.71 260.21 116.26 256.14 119.83 C 251.68 123.75 251.52 130.54 255.65 134.67 L 268.79 147.81 L 277.35 156.05 C 286.05 164.57 286.24 177.85 277.59 186.41 L 277.59 186.41 C 269.00 194.90 255.14 194.79 246.70 186.15 L 231.96 170.82 L 196.65 135.51 C 187.95 126.81 173.83 126.81 165.13 135.51 L 165.13 135.51 C 156.43 144.21 156.43 158.33 165.13 167.03 L 190.74 192.72 L 199.72 201.10 C 208.21 209.53 208.41 223.19 200.17 231.86 L 200.17 231.86 C 191.35 241.15 176.48 240.97 167.89 231.46 L 162.93 226.02 L 147.57 210.58 C 134.95 197.96 114.37 197.18 101.41 209.46 C 87.96 222.19 87.74 243.43 100.75 256.44 L 138.09 293.77 L 155.89 311.36 C 162.60 318.00 162.39 328.91 155.43 335.29 L 155.43 335.29 C 148.85 341.32 138.67 341.04 132.44 334.66 L 127.09 329.11 L 118.98 321.00 C 115.01 317.03 108.57 317.03 104.60 321.00 L 104.60 321.00 C 99.54 325.20 100.91 331.69 104.66 335.44 L 122.45 353.23 L 159.44 389.32 C 165.82 395.54 165.85 405.79 159.52 412.05 L 159.52 412.05 C 153.34 418.16 143.40 418.20 137.18 412.13 L 119.51 394.89 L 93.55 368.93 C 88.14 363.52 79.26 363.11 73.75 368.42 C 68.14 373.83 68.07 382.77 73.56 388.26 L 117.45 432.15 C 121.00 435.70 123.36 440.26 124.29 445.20 C 147.78 570.13 255.09 665.47 385.59 670.56 C 392.79 670.84 399.65 673.72 404.87 678.70 C 413.33 686.78 425.14 698.04 425.14 698.04 C 433.69 706.59 447.61 707.22 456.46 698.98 C 465.75 690.33 465.94 675.79 457.05 666.89 L 454.79 664.63 L 444.98 654.39 C 439.39 648.33 439.95 638.84 446.21 633.47 L 446.21 633.47 C 452.14 628.39 461.02 628.89 466.34 634.60 L 486.56 655.82 L 508.58 677.84 C 517.48 686.73 532.02 686.54 540.67 677.26 C 548.91 668.42 548.27 654.49 539.73 645.94 L 530.23 636.44 C 530.23 636.44 527.21 633.33 523.34 629.35 C 514.31 620.07 514.63 605.19 524.04 596.30 L 524.52 595.85 C 533.54 587.33 547.67 587.42 556.59 596.05 L 570.41 609.43 L 576.32 615.34 C 580.15 619.17 586.39 619.62 590.45 616.05 C 594.91 612.13 595.07 605.34 590.94 601.21 L 585.79 596.06 C 584.85 596.50 564.96 576.02 553.16 563.74 C 548.41 558.80 548.60 550.95 553.57 546.24 L 553.57 546.24 C 558.52 541.55 566.34 541.77 571.02 546.72 L 602.05 579.54 L 616.20 593.69 C 628.82 606.31 649.39 607.09 662.36 594.82 C 675.81 582.09 676.03 560.85 663.02 547.84 L 640.45 525.27 L 629.05 512.84 C 623.48 506.82 623.73 497.46 629.61 491.74 L 629.61 491.74 C 635.72 485.80 645.53 486.10 651.28 492.39 L 654.20 495.79 L 668.84 510.44 C 677.74 519.34 692.28 519.14 700.93 509.86 C 709.18 501.04 708.55 487.12 700.00 478.57 Z" fill="url(#SVGID_1_)" fill-rule="nonzero" group-id="1,2" node-id="88" stroke="none" target-height="618.92523" target-width="637.2182" target-x="69.53268" target-y="85.867355"></path><path d="M 427.80 199.45 L 412.96 199.45 L 412.96 184.61 C 412.96 181.57 410.49 179.10 407.45 179.10 C 404.41 179.10 401.94 181.57 401.94 184.61 L 401.94 199.45 L 387.10 199.45 C 384.06 199.45 381.59 201.92 381.59 204.96 C 381.59 208.00 384.06 210.47 387.10 210.47 L 401.94 210.47 L 401.94 225.31 C 401.94 228.35 404.41 230.82 407.45 230.82 C 410.49 230.82 412.96 228.35 412.96 225.31 L 412.96 210.47 L 427.80 210.47 C 430.84 210.47 433.31 208.00 433.31 204.96 C 433.31 201.92 430.84 199.45 427.80 199.45 Z" fill="#ffffff" fill-rule="nonzero" group-id="1,2" node-id="90" stroke="none" target-height="51.72" target-width="51.72" target-x="381.59" target-y="179.1"></path><path d="M 583.56 417.99 C 576.18 417.99 570.18 411.99 570.18 404.61 C 570.18 397.23 576.18 391.23 583.56 391.23 C 590.94 391.23 596.94 397.23 596.94 404.61 C 596.94 411.99 590.93 417.99 583.56 417.99 Z M 583.56 397.66 C 579.73 397.66 576.61 400.78 576.61 404.61 C 576.61 408.44 579.73 411.56 583.56 411.56 C 587.39 411.56 590.51 408.44 590.51 404.61 C 590.51 400.78 587.39 397.66 583.56 397.66 Z" fill="#ffffff" fill-rule="nonzero" group-id="1,2" node-id="92" stroke="none" target-height="26.75998" target-width="26.76001" target-x="570.18" target-y="391.23"></path><path d="M 220.91 520.03 C 213.53 520.03 207.53 514.03 207.53 506.65 C 207.53 499.27 213.53 493.27 220.91 493.27 C 228.29 493.27 234.29 499.27 234.29 506.65 C 234.28 514.03 228.28 520.03 220.91 520.03 Z M 220.91 499.70 C 217.08 499.70 213.96 502.82 213.96 506.65 C 213.96 510.48 217.08 513.60 220.91 513.60 C 224.74 513.60 227.86 510.48 227.86 506.65 C 227.86 502.82 224.74 499.70 220.91 499.70 Z" fill="#ffffff" fill-rule="nonzero" group-id="1,2" node-id="94" stroke="none" target-height="26.76004" target-width="26.759995" target-x="207.53" target-y="493.27"></path></g><g node-id="109"><path d="M 583.98 284.43 L 439.78 201.29 C 439.86 200.29 439.91 199.27 439.91 198.25 C 439.91 176.84 422.49 159.42 401.08 159.42 C 379.67 159.42 362.25 176.84 362.25 198.25 C 362.25 199.59 362.32 200.92 362.45 202.22 L 211.17 292.57 L 220.05 307.44 L 368.24 218.93 C 375.12 229.82 387.27 237.07 401.08 237.07 C 415.21 237.07 427.60 229.48 434.39 218.17 L 575.33 299.43 L 583.98 284.43 Z M 401.08 219.76 C 389.22 219.76 379.57 210.11 379.57 198.25 C 379.57 186.39 389.22 176.74 401.08 176.74 C 412.94 176.74 422.59 186.39 422.59 198.25 C 422.59 210.11 412.94 219.76 401.08 219.76 Z" fill="url(#SVGID_2_)" fill-rule="nonzero" group-id="1,3" node-id="99" stroke="none" target-height="148.02" target-width="372.81" target-x="211.17" target-y="159.42"></path><path d="M 594.19 584.50 L 205.41 584.50 C 186.75 584.50 171.62 569.37 171.62 550.71 L 171.62 301.30 C 171.62 282.64 186.75 267.51 205.41 267.51 L 594.18 267.51 C 612.84 267.51 627.97 282.64 627.97 301.30 L 627.97 550.70 C 627.98 569.37 612.85 584.50 594.19 584.50 Z" fill="url(#SVGID_3_)" fill-rule="nonzero" group-id="1,3" node-id="101" stroke="none" target-height="316.99" target-width="456.34998" target-x="171.62" target-y="267.51"></path><path d="M 453.77 398.66 L 251.07 398.66 C 241.69 398.66 234.08 391.05 234.08 381.67 L 234.08 380.96 C 234.08 371.58 241.69 363.97 251.07 363.97 L 453.77 363.97 C 463.15 363.97 470.76 371.58 470.76 380.96 L 470.76 381.67 C 470.76 391.05 463.16 398.66 453.77 398.66 Z" fill="#ffffff" fill-rule="nonzero" group-id="1,3" node-id="103" stroke="none" target-height="34.690002" target-width="236.68001" target-x="234.08" target-y="363.97"></path><path d="M 534.22 497.86 L 252.22 497.86 C 242.21 497.86 234.09 489.74 234.09 479.73 L 234.09 478.97 C 234.09 468.96 242.21 460.84 252.22 460.84 L 534.22 460.84 C 544.23 460.84 552.35 468.96 552.35 478.97 L 552.35 479.73 C 552.35 489.75 544.23 497.86 534.22 497.86 Z" fill="#ffffff" fill-rule="nonzero" group-id="1,3" node-id="105" stroke="none" target-height="37.01999" target-width="318.25998" target-x="234.09" target-y="460.84"></path></g></g></svg>