<?xml version="1.0" standalone="no"?><!DOCTYPE svg PUBLIC "-//W3C//DTD SVG 1.1//EN" "http://www.w3.org/Graphics/SVG/1.1/DTD/svg11.dtd"><svg t="1684332598186" class="icon" viewBox="0 0 1024 1024" version="1.1" xmlns="http://www.w3.org/2000/svg" p-id="1453" xmlns:xlink="http://www.w3.org/1999/xlink" width="200" height="200"><path d="M931.328 486.4c32.2048-31.3856 14.4384-86.0672-30.0544-92.5184l-204.544-29.696c-17.664-2.56-32.9216-13.6704-40.8576-29.696l-91.4432-185.344c-19.9168-40.3456-77.4144-40.3456-97.28 0l-91.4432 185.344a54.33856 54.33856 0 0 1-40.8576 29.696l-204.544 29.696c-44.544 6.4512-62.3104 61.1328-30.1056 92.5184l148.0192 144.2816c12.8 12.4416 18.6368 30.4128 15.616 48.0256l-34.9184 203.7248c-7.5776 44.3392 38.912 78.1312 78.6944 57.1904l182.9376-96.1536a54.3232 54.3232 0 0 1 50.4832 0l182.9376 96.1536c39.7824 20.9408 86.3232-12.8512 78.6944-57.1904l-34.9184-203.7248c-3.0208-17.6128 2.816-35.5328 15.616-48.0256L931.328 486.4z m-574.464-1.6896l-122.9312 15.5648c-1.3312 0.1536-2.6112 0.256-3.8912 0.256-15.2576 0-28.4672-11.3152-30.4128-26.88a30.72 30.72 0 0 1 26.624-34.3552l122.9312-15.5648a30.72 30.72 0 0 1 34.3552 26.624c2.0992 16.8448-9.8304 32.256-26.6752 34.3552z" fill="#FFC2D6" p-id="1454"></path><path d="M931.328 440.32c32.2048-31.3856 14.4384-86.0672-30.0544-92.5184l-204.544-29.696c-17.664-2.56-32.9216-13.6704-40.8576-29.696l-91.4432-185.344c-19.9168-40.3456-77.4144-40.3456-97.28 0l-91.4432 185.344a54.33856 54.33856 0 0 1-40.8576 29.696l-204.544 29.696c-44.544 6.4512-62.3104 61.1328-30.1056 92.5184l148.0192 144.2816c12.8 12.4416 18.6368 30.4128 15.616 48.0256l-34.9184 203.7248c-7.5776 44.3392 38.912 78.1312 78.6944 57.1904l182.9376-96.1536a54.3232 54.3232 0 0 1 50.4832 0l182.9376 96.1536c39.7824 20.9408 86.3232-12.8512 78.6944-57.1904l-34.9184-203.7248c-3.0208-17.6128 2.816-35.5328 15.616-48.0256L931.328 440.32z m-574.464-1.6896l-122.9312 15.5648c-1.3312 0.1536-2.6112 0.256-3.8912 0.256-15.2576 0-28.4672-11.3152-30.4128-26.88a30.72 30.72 0 0 1 26.624-34.3552l122.9312-15.5648a30.72 30.72 0 0 1 34.3552 26.624c2.0992 16.8448-9.8304 32.256-26.6752 34.3552z" fill="#FF779F" p-id="1455"></path></svg>