<?xml version="1.0" standalone="no"?><!DOCTYPE svg PUBLIC "-//W3C//DTD SVG 1.1//EN" "http://www.w3.org/Graphics/SVG/1.1/DTD/svg11.dtd"><svg t="1684332595986" class="icon" viewBox="0 0 1024 1024" version="1.1" xmlns="http://www.w3.org/2000/svg" p-id="1305" xmlns:xlink="http://www.w3.org/1999/xlink" width="200" height="200"><path d="M498.8416 536.576c11.5712 7.2704 26.9312 7.1168 38.2976-0.4608l388.1984-259.3792c-3.3792-42.1376-38.5536-75.3152-81.6128-75.3152h-650.24c-45.2608 0-81.92 36.6592-81.92 81.92v8.5504l387.2768 244.6848z" fill="#C0E9FF" p-id="1306"></path><path d="M571.2384 597.4528a96.55808 96.55808 0 0 1-53.6064 16.2304c-17.92 0-35.84-4.9664-51.6096-14.9504L111.5648 374.784v417.1264c0 45.2608 36.6592 81.92 81.92 81.92h650.1888c45.2608 0 81.92-36.6592 81.92-81.92V360.6528l-354.3552 236.8z" fill="#C0E9FF" p-id="1307"></path><path d="M498.8416 510.976c11.5712 7.2704 26.9312 7.1168 38.2976-0.4608l388.1984-259.3792c-3.3792-42.1376-38.5536-75.3152-81.6128-75.3152h-650.24c-45.2608 0-81.92 36.6592-81.92 81.92v8.5504L498.8416 510.976z" fill="#5FBEFF" p-id="1308"></path><path d="M571.2384 561.6128a96.55808 96.55808 0 0 1-53.6064 16.2304c-17.92 0-35.84-4.9664-51.6096-14.9504L111.5648 338.944v417.1264c0 45.2608 36.6592 81.92 81.92 81.92h650.1888c45.2608 0 81.92-36.6592 81.92-81.92V324.8128l-354.3552 236.8z" fill="#5FBEFF" p-id="1309"></path></svg>