<?xml version="1.0" standalone="no"?><!DOCTYPE svg PUBLIC "-//W3C//DTD SVG 1.1//EN" "http://www.w3.org/Graphics/SVG/1.1/DTD/svg11.dtd"><svg t="1684332617926" class="icon" viewBox="0 0 1024 1024" version="1.1" xmlns="http://www.w3.org/2000/svg" p-id="2331" xmlns:xlink="http://www.w3.org/1999/xlink" width="200" height="200"><path d="M435.6096 524.288l-3.7376 21.8112 19.6608-10.3424a42.69056 42.69056 0 0 1 39.6288 0l19.6608 10.3424-3.7376-21.8624c-2.3552-13.824 2.2016-27.904 12.288-37.7344l15.872-15.4624-21.9648-3.1744a42.55744 42.55744 0 0 1-32.0512-23.296l-9.8304-19.9168-9.8304 19.9168a42.60864 42.60864 0 0 1-32.1024 23.296l-22.016 3.1744 15.872 15.5136a42.57792 42.57792 0 0 1 12.288 37.7344z" fill="#B8FAFF" p-id="2332"></path><path d="M794.368 144.7424v663.7568c0 25.344-20.6336 45.9776-45.9776 45.9776H289.8944c-16.64 0-30.1568-13.5168-30.1568-30.1568 0-16.64 13.5168-30.1568 30.1568-30.1568h444.16V144.4864H252.6208c-44.3904 0-80.384 35.9936-80.384 80.384v622.6944c0 44.3904 35.9936 80.384 80.384 80.384h536.576c44.3904 0 80.384-35.9936 80.384-80.384V224.9216c0-42.6496-33.2288-77.4656-75.2128-80.1792zM328.9088 445.5424a42.3936 42.3936 0 0 1 34.4064-28.9792l48.2816-7.0144 21.5552-43.7248a42.33728 42.33728 0 0 1 38.1952-23.7568c16.3328 0 30.976 9.1136 38.1952 23.7568l21.5552 43.7248 48.2816 7.0144c16.1792 2.3552 29.3376 13.4656 34.3552 28.9792 5.0688 15.5136 0.9216 32.256-10.8032 43.6736l-34.9184 34.048 8.2432 48.0768a42.3936 42.3936 0 0 1-16.9472 41.6768c-13.2096 9.5744-30.4128 10.8544-44.8512 3.2256l-43.1616-22.6816-43.1616 22.6816c-6.2976 3.328-13.1072 4.9664-19.8656 4.9664-8.8064 0-17.5104-2.7648-24.9856-8.192a42.3168 42.3168 0 0 1-16.9472-41.6768l8.2432-48.0768-34.9184-34.048a42.35264 42.35264 0 0 1-10.752-43.6736z" fill="#B8FAFF" p-id="2333"></path><path d="M435.6096 477.9008l-3.7376 21.8112 19.6608-10.3424a42.69056 42.69056 0 0 1 39.6288 0l19.6608 10.3424-3.7376-21.8624c-2.3552-13.824 2.2016-27.904 12.288-37.7344l15.872-15.4624-21.9648-3.1744a42.55744 42.55744 0 0 1-32.0512-23.296l-9.8304-19.9168-9.8304 19.9168a42.60864 42.60864 0 0 1-32.1024 23.296l-21.9648 3.1744 15.872 15.5136a42.73664 42.73664 0 0 1 12.2368 37.7344z" fill="#3FD5F6" p-id="2334"></path><path d="M794.368 98.4064v663.7568c0 25.344-20.6336 45.9776-45.9776 45.9776H289.8944c-16.64 0-30.1568-13.5168-30.1568-30.1568s13.5168-30.1568 30.1568-30.1568h444.16V98.1504H252.6208c-44.3904 0-80.384 35.9936-80.384 80.384v622.6944c0 44.3904 35.9936 80.384 80.384 80.384h536.576c44.3904 0 80.384-35.9936 80.384-80.384V178.5344c0-42.6496-33.2288-77.4656-75.2128-80.128zM328.9088 399.1552a42.3936 42.3936 0 0 1 34.4064-28.9792l48.2816-7.0144 21.5552-43.7248a42.33728 42.33728 0 0 1 38.1952-23.7568c16.3328 0 30.976 9.1136 38.1952 23.7568l21.5552 43.7248 48.2816 7.0144c16.1792 2.3552 29.3376 13.4656 34.3552 28.9792 5.0688 15.5136 0.9216 32.256-10.8032 43.6736l-34.9184 34.048 8.2432 48.0768a42.3936 42.3936 0 0 1-16.9472 41.6768c-13.2096 9.5744-30.4128 10.8544-44.8512 3.2256l-43.1616-22.6816-43.1616 22.6816c-6.2976 3.328-13.1072 4.9664-19.8656 4.9664-8.8064 0-17.5104-2.7648-24.9856-8.192a42.3168 42.3168 0 0 1-16.9472-41.6768l8.2432-48.0768-34.9184-34.048a42.35264 42.35264 0 0 1-10.752-43.6736z" fill="#3FD5F6" p-id="2335"></path></svg>