<?xml version="1.0" standalone="no"?><!DOCTYPE svg PUBLIC "-//W3C//DTD SVG 1.1//EN" "http://www.w3.org/Graphics/SVG/1.1/DTD/svg11.dtd"><svg t="1684332632699" class="icon" viewBox="0 0 1024 1024" version="1.1" xmlns="http://www.w3.org/2000/svg" p-id="3205" xmlns:xlink="http://www.w3.org/1999/xlink" width="200" height="200"><path d="M538.2656 445.696L517.12 402.8928l-21.1456 42.8032a50.30912 50.30912 0 0 1-37.888 27.4944l-47.2576 6.8608 34.2016 33.3312a50.16064 50.16064 0 0 1 14.4384 44.4928l-8.0896 47.0528 42.24-22.2208c7.3216-3.84 15.36-5.7856 23.3984-5.7856s16.0768 1.9456 23.3984 5.7856l42.24 22.2208-8.0896-47.0528c-2.816-16.2816 2.6112-32.9216 14.4384-44.4928l34.2016-33.3312-47.2576-6.8608a50.1504 50.1504 0 0 1-37.6832-27.4944z" fill="#FCDFAE" p-id="3206"></path><path d="M853.3504 242.3808c-69.2736 1.792-208.64-6.5024-311.1424-89.856-14.7456-11.9808-35.9936-12.3904-51.0464-0.768C382.0544 235.8272 248.4224 244.5824 181.1968 242.688c-23.552-0.6656-43.008 18.1248-43.008 41.6768V474.112c0 209.2544 169.6768 470.8352 378.9312 470.8352 209.2544 0 378.9312-261.5808 378.9312-470.8352V284.0576c0-23.4496-19.3024-42.24-42.7008-41.6768z m-163.5328 263.5264l-49.8688 48.5888 11.776 68.6592c3.2768 18.9952-4.4032 37.888-20.0192 49.2032a49.90976 49.90976 0 0 1-52.9408 3.84L517.12 643.7376l-61.6448 32.4096a50.4832 50.4832 0 0 1-23.4496 5.8368c-10.3936 0-20.6848-3.2768-29.4912-9.6768-15.616-11.3152-23.2448-30.1568-20.0192-49.2032l11.776-68.6592-49.8688-48.5888a50.01216 50.01216 0 0 1-12.7488-51.5584c5.9392-18.3296 21.504-31.4368 40.6016-34.2528l68.9152-10.0352 30.8224-62.464c8.5504-17.3056 25.8048-28.0576 45.1072-28.0576 19.3024 0 36.5568 10.752 45.1072 28.0576l30.8224 62.464 68.9152 10.0352c19.0976 2.7648 34.6624 15.872 40.6016 34.2528 5.9392 18.3808 1.0752 38.144-12.7488 51.6096z" fill="#FCDFAE" p-id="3207"></path><path d="M538.2656 391.6288L517.12 348.8256l-21.1456 42.8032a50.30912 50.30912 0 0 1-37.888 27.4944l-47.2576 6.8608 34.2016 33.3312a50.16064 50.16064 0 0 1 14.4384 44.4928l-8.0896 47.0528 42.24-22.2208c7.3216-3.84 15.36-5.7856 23.3984-5.7856s16.0768 1.9456 23.3984 5.7856l42.24 22.2208-8.0896-47.0528c-2.816-16.2816 2.6112-32.9216 14.4384-44.4928l34.2016-33.3312-47.2576-6.8608a50.1504 50.1504 0 0 1-37.6832-27.4944z" fill="#F39800" p-id="3208"></path><path d="M853.3504 188.3136c-69.2736 1.792-208.64-6.5024-311.1424-89.856-14.7456-11.9808-35.9936-12.3904-51.0464-0.768C382.0544 181.76 248.4224 190.5152 181.1968 188.6208c-23.552-0.6656-43.008 18.1248-43.008 41.6768v189.7472C138.1888 629.3504 307.8656 890.88 517.12 890.88c209.2544 0 378.9312-261.5808 378.9312-470.8352V229.9904c0-23.4496-19.3024-42.24-42.7008-41.6768z m-163.5328 263.5264l-49.8688 48.5888 11.776 68.6592c3.2768 18.9952-4.4032 37.888-20.0192 49.2032a49.90976 49.90976 0 0 1-52.9408 3.84L517.12 589.6704l-61.6448 32.4096a50.4832 50.4832 0 0 1-23.4496 5.8368c-10.3936 0-20.6848-3.2768-29.4912-9.6768-15.616-11.3152-23.2448-30.1568-20.0192-49.2032l11.776-68.6592-49.8688-48.5888a50.01216 50.01216 0 0 1-12.7488-51.5584c5.9392-18.3296 21.504-31.4368 40.6016-34.2528l68.9152-10.0352 30.8224-62.464c8.5504-17.3056 25.8048-28.0576 45.1072-28.0576 19.3024 0 36.5568 10.752 45.1072 28.0576l30.8224 62.464 68.9152 10.0352c19.0976 2.7648 34.6624 15.872 40.6016 34.2528 5.9392 18.3808 1.0752 38.144-12.7488 51.6096z" fill="#F39800" p-id="3209"></path></svg>