<?xml version="1.0" standalone="no"?><!DOCTYPE svg PUBLIC "-//W3C//DTD SVG 1.1//EN" "http://www.w3.org/Graphics/SVG/1.1/DTD/svg11.dtd"><svg t="1684332627776" class="icon" viewBox="0 0 1024 1024" version="1.1" xmlns="http://www.w3.org/2000/svg" p-id="2911" xmlns:xlink="http://www.w3.org/1999/xlink" width="200" height="200"><path d="M609.1776 519.8336l-130.3552-75.264a20.1216 20.1216 0 0 0-10.1888-2.816c-4.7616 0-8.4992 1.7408-10.3936 2.816-3.072 1.792-10.2912 7.0656-10.2912 17.7664v150.528c0 10.7008 7.168 16.0256 10.2912 17.7664 3.072 1.792 11.264 5.376 20.5312 0l130.3552-75.264c9.2672-5.376 10.2912-14.2336 10.2912-17.7664 0.0512-3.584-0.9728-12.4416-10.24-17.7664z" fill="#FCCBBB" p-id="2912"></path><path d="M512 146.7392c-215.8592 0-390.8608 175.0016-390.8608 390.8608 0 215.8592 175.0016 390.8608 390.8608 390.8608 215.8592 0 390.8608-175.0016 390.8608-390.8608 0-215.8592-175.0016-390.8608-390.8608-390.8608z m126.72 459.8272l-130.3552 75.264a79.25248 79.25248 0 0 1-39.8336 10.8032c-13.6704 0-27.3408-3.584-39.8336-10.8032-24.9344-14.3872-39.8336-40.192-39.8336-68.9664V462.336c0-28.7744 14.8992-54.5792 39.8336-68.9664 24.9344-14.3872 54.6816-14.3872 79.616 0l130.3552 75.264c24.9344 14.3872 39.8336 40.192 39.8336 68.9664 0.0512 28.7744-14.848 54.5792-39.7824 68.9664z" fill="#FCCBBB" p-id="2913"></path><path d="M609.1776 473.7536l-130.3552-75.264a20.1216 20.1216 0 0 0-10.1888-2.816c-4.7616 0-8.4992 1.7408-10.3936 2.816-3.072 1.792-10.2912 7.0656-10.2912 17.7664v150.528c0 10.7008 7.168 16.0256 10.2912 17.7664 3.072 1.792 11.264 5.376 20.5312 0l130.3552-75.264c9.2672-5.376 10.2912-14.2336 10.2912-17.7664 0.0512-3.584-0.9728-12.4416-10.24-17.7664z" fill="#FF9068" p-id="2914"></path><path d="M512 100.6592c-215.8592 0-390.8608 175.0016-390.8608 390.8608 0 215.8592 175.0016 390.8608 390.8608 390.8608 215.8592 0 390.8608-175.0016 390.8608-390.8608 0-215.8592-175.0016-390.8608-390.8608-390.8608z m126.72 459.8272l-130.3552 75.264a79.25248 79.25248 0 0 1-39.8336 10.8032c-13.6704 0-27.3408-3.584-39.8336-10.8032-24.9344-14.3872-39.8336-40.192-39.8336-68.9664V416.256c0-28.7744 14.8992-54.5792 39.8336-68.9664 24.9344-14.3872 54.6816-14.3872 79.616 0l130.3552 75.264c24.9344 14.3872 39.8336 40.192 39.8336 68.9664 0.0512 28.7744-14.848 54.5792-39.7824 68.9664z" fill="#FF9068" p-id="2915"></path></svg>