<?xml version="1.0" standalone="no"?><!DOCTYPE svg PUBLIC "-//W3C//DTD SVG 1.1//EN" "http://www.w3.org/Graphics/SVG/1.1/DTD/svg11.dtd"><svg t="1684332592915" class="icon" viewBox="0 0 1024 1024" version="1.1" xmlns="http://www.w3.org/2000/svg" p-id="1159" xmlns:xlink="http://www.w3.org/1999/xlink" width="200" height="200"><path d="M529.2544 109.056c-5.5296 0-11.0592 0.1024-16.5376 0.3584-10.752 0.4608-14.1312 15.104-4.9152 20.7872 76.6464 47.0016 127.9488 133.632 127.5392 232.704-0.5632 147.2512-117.76 268.1344-259.7888 267.9808-96.2048-0.1024-180.1216-54.4768-224.8704-135.2192-5.376-9.728-19.5584-6.2464-20.1216 4.9152-0.3584 7.3728-0.5632 14.7968-0.5632 22.272 0 231.8848 184.0128 419.2256 408.8832 413.7472 211.8144-5.1712 384.5632-184.2176 389.5296-403.7632 5.2736-233.0624-175.4624-423.7824-399.1552-423.7824z" fill="#B2BBF9" p-id="1160"></path><path d="M279.9104 466.7392a61.696 59.5456 90 1 0 119.0912 0 61.696 59.5456 90 1 0-119.0912 0Z" fill="#B2BBF9" p-id="1161"></path><path d="M513.8944 87.04h-0.5632c-15.104 0-21.0432 19.8144-8.4992 28.2624 72.0384 48.3328 118.528 131.7376 114.944 225.792-5.12 135.0144-115.4048 244.736-250.4704 249.2928-94.72 3.1744-178.4832-44.4416-226.304-117.7088-8.2944-12.6976-28.16-6.8096-28.3648 8.3968 0 1.792-0.0512 3.5328-0.0512 5.3248 0 223.6928 184.0128 404.4288 408.8832 399.1552 211.8144-4.9664 384.5632-177.7152 389.5296-389.5296C918.3232 271.0016 737.5872 87.04 513.8944 87.04z" fill="#7A7DFF" p-id="1162"></path><path d="M333.6192 435.6096m-59.5456 0a59.5456 59.5456 0 1 0 119.0912 0 59.5456 59.5456 0 1 0-119.0912 0Z" fill="#7A7DFF" p-id="1163"></path></svg>