<?xml version="1.0" standalone="no"?><!DOCTYPE svg PUBLIC "-//W3C//DTD SVG 1.1//EN" "http://www.w3.org/Graphics/SVG/1.1/DTD/svg11.dtd"><svg t="1684332622940" class="icon" viewBox="0 0 1024 1024" version="1.1" xmlns="http://www.w3.org/2000/svg" p-id="2623" xmlns:xlink="http://www.w3.org/1999/xlink" width="200" height="200"><path d="M770.816 145.9712H245.5552c-45.2608 0-81.92 36.6592-81.92 81.92v602.0096c0 45.2608 36.6592 81.92 81.92 81.92h525.2608c45.2608 0 81.92-36.6592 81.92-81.92V227.8912c0-45.2608-36.6592-81.92-81.92-81.92zM299.2128 352.256h289.4336c16.9472 0 30.72 13.7728 30.72 30.72s-13.7728 30.72-30.72 30.72H299.2128c-16.9472 0-30.72-13.7728-30.72-30.72s13.7728-30.72 30.72-30.72z m417.9456 321.6896H299.2128c-16.9472 0-30.72-13.7728-30.72-30.72s13.7728-30.72 30.72-30.72h417.9456c16.9472 0 30.72 13.7728 30.72 30.72s-13.7216 30.72-30.72 30.72z" fill="#C0E9FF" p-id="2624"></path><path d="M770.816 105.0112H245.5552c-45.2608 0-81.92 36.6592-81.92 81.92v602.0096c0 45.2608 36.6592 81.92 81.92 81.92h525.2608c45.2608 0 81.92-36.6592 81.92-81.92V186.9312c0-45.2608-36.6592-81.92-81.92-81.92zM299.2128 311.296h289.4336c16.9472 0 30.72 13.7728 30.72 30.72s-13.7728 30.72-30.72 30.72H299.2128c-16.9472 0-30.72-13.7728-30.72-30.72s13.7728-30.72 30.72-30.72z m417.9456 321.6896H299.2128c-16.9472 0-30.72-13.7728-30.72-30.72s13.7728-30.72 30.72-30.72h417.9456c16.9472 0 30.72 13.7728 30.72 30.72s-13.7216 30.72-30.72 30.72z" fill="#5FBEFF" p-id="2625"></path></svg>