<?xml version="1.0" standalone="no"?><!DOCTYPE svg PUBLIC "-//W3C//DTD SVG 1.1//EN" "http://www.w3.org/Graphics/SVG/1.1/DTD/svg11.dtd"><svg t="1684332634759" class="icon" viewBox="0 0 1024 1024" version="1.1" xmlns="http://www.w3.org/2000/svg" p-id="3353" xmlns:xlink="http://www.w3.org/1999/xlink" width="200" height="200"><path d="M858.88 570.6752H495.2576c-10.5984 0-19.2-8.6016-19.2-19.2V187.8528c-214.4768 0-387.7888 176.384-382.72 392.0384 4.7616 203.0592 170.3936 368.6912 373.4528 373.4528 215.6544 5.12 392.0896-168.1408 392.0896-382.6688z" fill="#C0E9FF" p-id="3354"></path><path d="M553.0624 119.04v369.3568c0 7.424 5.9904 13.4144 13.4144 13.4144h369.3568c0.0512-211.4048-171.3152-382.7712-382.7712-382.7712z" fill="#C0E9FF" p-id="3355"></path><path d="M858.88 521.3696H495.2576c-10.5984 0-19.2-8.6016-19.2-19.2V138.5984c-214.4768 0-387.7888 176.384-382.72 392.0384 4.7616 203.0592 170.3936 368.6912 373.4528 373.4528 215.6544 5.0688 392.0896-168.192 392.0896-382.72z" fill="#5DBFFE" p-id="3356"></path><path d="M553.0624 69.7344v369.3568c0 7.424 5.9904 13.4144 13.4144 13.4144h369.3568c0.0512-211.4048-171.3152-382.7712-382.7712-382.7712z" fill="#5DBFFE" p-id="3357"></path></svg>