<?xml version="1.0" standalone="no"?><!DOCTYPE svg PUBLIC "-//W3C//DTD SVG 1.1//EN" "http://www.w3.org/Graphics/SVG/1.1/DTD/svg11.dtd"><svg t="1684332583613" class="icon" viewBox="0 0 1024 1024" version="1.1" xmlns="http://www.w3.org/2000/svg" p-id="1013" xmlns:xlink="http://www.w3.org/1999/xlink" width="200" height="200"><path d="M512 420.3008c-61.4912 0-111.5648 50.0224-111.5648 111.5648s50.0736 111.5648 111.5648 111.5648 111.5648-50.0224 111.5648-111.5648-50.0224-111.5648-111.5648-111.5648z" fill="#B2BBF9" p-id="1014"></path><path d="M890.0096 635.9552l-45.4144-26.2144c-15.4624-8.9088-24.32-26.112-22.4256-43.8272 1.2288-11.1616 1.8432-22.528 1.8432-34.048s-0.6144-22.8352-1.8432-34.048c-1.9456-17.7664 6.9632-34.9184 22.4256-43.8272l45.4144-26.2144c17.1008-9.8816 22.9376-31.744 13.056-48.7936l-63.1296-109.312c-9.8816-17.1008-31.744-22.9376-48.7936-13.056l-45.4656 26.2656c-15.4624 8.96-34.816 8.0384-49.2544-2.56-18.0224-13.2096-37.5296-24.576-58.1632-33.6896-16.5888-7.3216-27.4432-23.552-27.4432-41.6256V152.4224a35.7376 35.7376 0 0 0-35.7376-35.7376H448.8704a35.7376 35.7376 0 0 0-35.7376 35.7376v52.48c0 18.1248-10.8544 34.304-27.4432 41.6256-20.6848 9.1648-40.1408 20.48-58.1632 33.6896-14.4384 10.5984-33.7408 11.4688-49.2544 2.56l-45.4656-26.2656a35.71712 35.71712 0 0 0-48.7936 13.056L120.8832 378.9312a35.71712 35.71712 0 0 0 13.056 48.7936l45.4144 26.2144c15.4624 8.9088 24.32 26.112 22.4256 43.8272-1.2288 11.1616-1.8432 22.528-1.8432 34.048s0.6144 22.8352 1.8432 34.048c1.9456 17.7664-6.9632 34.9184-22.4256 43.8272l-45.4144 26.2144c-17.1008 9.8816-22.9376 31.744-13.056 48.7936l63.1296 109.312c9.8816 17.1008 31.744 22.9376 48.7936 13.056l45.4656-26.2656c15.4624-8.96 34.816-8.0384 49.2544 2.56 18.0224 13.2096 37.5296 24.576 58.1632 33.6896 16.5888 7.3216 27.4432 23.552 27.4432 41.6256v52.48a35.7376 35.7376 0 0 0 35.7376 35.7376h126.208a35.7376 35.7376 0 0 0 35.7376-35.7376v-52.48c0-18.1248 10.8544-34.304 27.4432-41.6256 20.6848-9.1648 40.1408-20.48 58.1632-33.6896 14.3872-10.5984 33.7408-11.4688 49.2544-2.56l45.4656 26.2656c17.1008 9.8816 38.9632 3.9936 48.7936-13.056l63.1296-109.312c9.8816-16.9984 4.0448-38.8608-13.056-48.7424zM512 699.1872c-92.2624 0-167.3216-75.0592-167.3216-167.3216S419.7376 364.544 512 364.544s167.3216 75.0592 167.3216 167.3216-75.0592 167.3216-167.3216 167.3216z" fill="#B2BBF9" p-id="1015"></path><path d="M512 380.416c-61.4912 0-111.5648 50.0224-111.5648 111.5648s50.0736 111.5648 111.5648 111.5648 111.5648-50.0224 111.5648-111.5648S573.5424 380.416 512 380.416z" fill="#7A80FC" p-id="1016"></path><path d="M890.0096 596.0704l-45.4144-26.2144c-15.4624-8.9088-24.32-26.112-22.4256-43.8272 1.2288-11.1616 1.8432-22.528 1.8432-34.048s-0.6144-22.8352-1.8432-34.048c-1.9456-17.7664 6.9632-34.9184 22.4256-43.8272l45.4144-26.2144c17.1008-9.8816 22.9376-31.744 13.056-48.7936l-63.1296-109.312c-9.8816-17.1008-31.744-22.9376-48.7936-13.056l-45.4656 26.2656c-15.4624 8.96-34.816 8.0384-49.2544-2.56-18.0224-13.2096-37.5296-24.576-58.1632-33.6896-16.5888-7.3216-27.4432-23.552-27.4432-41.6256V112.5376a35.7376 35.7376 0 0 0-35.7376-35.7376H448.8704a35.7376 35.7376 0 0 0-35.7376 35.7376v52.48c0 18.1248-10.8544 34.304-27.4432 41.6256-20.6848 9.1648-40.1408 20.48-58.1632 33.6896-14.4384 10.5984-33.7408 11.4688-49.2544 2.56l-45.4656-26.2656a35.71712 35.71712 0 0 0-48.7936 13.056L120.8832 339.0464a35.71712 35.71712 0 0 0 13.056 48.7936l45.4144 26.2144c15.4624 8.9088 24.32 26.112 22.4256 43.8272-1.2288 11.1616-1.8432 22.528-1.8432 34.048s0.6144 22.8352 1.8432 34.048c1.9456 17.7664-6.9632 34.9184-22.4256 43.8272l-45.4144 26.2144c-17.1008 9.8816-22.9376 31.744-13.056 48.7936l63.1296 109.312c9.8816 17.1008 31.744 22.9376 48.7936 13.056l45.4656-26.2656c15.4624-8.96 34.816-8.0384 49.2544 2.56 18.0224 13.2096 37.5296 24.576 58.1632 33.6896 16.5888 7.3216 27.4432 23.552 27.4432 41.6256v52.48a35.7376 35.7376 0 0 0 35.7376 35.7376h126.208a35.7376 35.7376 0 0 0 35.7376-35.7376v-52.48c0-18.1248 10.8544-34.304 27.4432-41.6256 20.6848-9.1648 40.1408-20.48 58.1632-33.6896 14.3872-10.5984 33.7408-11.4688 49.2544-2.56l45.4656 26.2656c17.1008 9.8816 38.9632 3.9936 48.7936-13.056l63.1296-109.312c9.8816-16.9984 4.0448-38.8608-13.056-48.7424zM512 659.3024c-92.2624 0-167.3216-75.0592-167.3216-167.3216S419.7376 324.608 512 324.608s167.3216 75.0592 167.3216 167.3216-75.0592 167.3728-167.3216 167.3728z" fill="#7A80FC" p-id="1017"></path></svg>