<?xml version="1.0" standalone="no"?><!DOCTYPE svg PUBLIC "-//W3C//DTD SVG 1.1//EN" "http://www.w3.org/Graphics/SVG/1.1/DTD/svg11.dtd"><svg t="1684332610244" class="icon" viewBox="0 0 1024 1024" version="1.1" xmlns="http://www.w3.org/2000/svg" p-id="2037" xmlns:xlink="http://www.w3.org/1999/xlink" width="200" height="200"><path d="M368.64 323.584V140.1344L166.7072 337.152H354.816c7.6288 0 13.824-6.0928 13.824-13.568z" fill="#B2BBF9" p-id="2038"></path><path d="M785.3056 135.7312H428.032V323.584c0 39.6288-32.8192 71.8336-73.216 71.8336H165.4272v460.2368c0 42.9056 35.4304 77.6704 79.1552 77.6704h540.7232c43.7248 0 79.1552-34.7648 79.1552-77.6704V213.4016c0-42.9056-35.4304-77.6704-79.1552-77.6704z m-66.7136 636.928H364.3392c-16.384 0-29.696-13.056-29.696-29.1328s13.312-29.1328 29.696-29.1328h354.2528c16.384 0 29.696 13.056 29.696 29.1328s-13.312 29.1328-29.696 29.1328z m0-161.6896H364.3392c-16.384 0-29.696-13.056-29.696-29.1328s13.312-29.1328 29.696-29.1328h354.2528c16.384 0 29.696 13.056 29.696 29.1328s-13.312 29.1328-29.696 29.1328z m0-161.6384h-182.784c-16.384 0-29.696-13.056-29.696-29.1328 0-16.0768 13.312-29.1328 29.696-29.1328h182.784c16.384 0 29.696 13.056 29.696 29.1328-0.0512 16.0768-13.312 29.1328-29.696 29.1328z" fill="#B2BBF9" p-id="2039"></path><path d="M368.64 282.624V99.1744L166.7072 296.192H354.816c7.6288 0 13.824-6.0928 13.824-13.568z" fill="#7A7DFF" p-id="2040"></path><path d="M785.3056 94.7712H428.032V282.624c0 39.6288-32.8192 71.8336-73.216 71.8336H165.4272v460.2368c0 42.9056 35.4304 77.6704 79.1552 77.6704h540.7232c43.7248 0 79.1552-34.7648 79.1552-77.6704V172.4416c0-42.9056-35.4304-77.6704-79.1552-77.6704z m-66.7136 636.928H364.3392c-16.384 0-29.696-13.056-29.696-29.1328s13.312-29.1328 29.696-29.1328h354.2528c16.384 0 29.696 13.056 29.696 29.1328s-13.312 29.1328-29.696 29.1328z m0-161.6896H364.3392c-16.384 0-29.696-13.056-29.696-29.1328s13.312-29.1328 29.696-29.1328h354.2528c16.384 0 29.696 13.056 29.696 29.1328s-13.312 29.1328-29.696 29.1328z m0-161.6384h-182.784c-16.384 0-29.696-13.056-29.696-29.1328 0-16.0768 13.312-29.1328 29.696-29.1328h182.784c16.384 0 29.696 13.056 29.696 29.1328-0.0512 16.0768-13.312 29.1328-29.696 29.1328z" fill="#7A7DFF" p-id="2041"></path></svg>